<svg width="25" height="25" viewBox="0 0 25 25" fill="none" xmlns="http://www.w3.org/2000/svg">
<g clip-path="url(#clip0_203_1398)">
<path d="M21.6916 6.5465L22.4714 6.09716L22.4714 6.09716L21.6916 6.5465ZM22.2057 7.43879L21.4259 7.88813L21.4259 7.88813L22.2057 7.43879ZM22.2057 17.5771L21.4259 17.1277L22.2057 17.5771ZM21.6916 18.4693L22.4714 18.9187L22.4714 18.9187L21.6916 18.4693ZM20.8758 13.9401L20.1695 14.498L20.1866 14.5196L20.205 14.5402L20.8758 13.9401ZM18.0533 19.0741L18.2973 18.2078L18.2765 18.202L18.2555 18.1971L18.0533 19.0741ZM16.6379 19.2507L16.2265 18.4502L16.207 18.4602L16.188 18.4712L16.6379 19.2507ZM20.7775 19.6161L20.4384 18.7825L20.4384 18.7825L20.7775 19.6161ZM19.3243 19.4322L19.57 18.5663L19.5683 18.5659L19.3243 19.4322ZM21.9498 15.1409L21.279 15.7409L21.2806 15.7427L21.9498 15.1409ZM18.0532 5.94169L18.2555 6.81867L18.2765 6.81383L18.2972 6.80798L18.0532 5.94169ZM16.6381 5.76525L16.1883 6.54479L16.2073 6.55575L16.2268 6.56577L16.6381 5.76525ZM20.8758 11.0757L20.205 10.4757L20.1866 10.4962L20.1696 10.5178L20.8758 11.0757ZM22.7171 8.7243L23.6122 8.81834L23.6122 8.81833L22.7171 8.7243ZM21.9498 9.87496L21.2806 9.27318L21.279 9.27495L21.9498 9.87496ZM19.3243 5.58367L19.5683 6.44997L19.57 6.44949L19.3243 5.58367ZM15.4662 4.55478L14.6128 4.84053L14.6189 4.85895L14.6259 4.87709L15.4662 4.55478ZM16.2872 5.56277L15.8018 6.32065L15.8193 6.3319L15.8374 6.34232L16.2872 5.56277ZM15.1183 3.51583L14.2643 3.79994L14.2649 3.80159L15.1183 3.51583ZM15.4662 20.4611L14.6259 20.1388L14.619 20.1569L14.6128 20.1753L15.4662 20.4611ZM16.2871 19.4532L15.8372 18.6737L15.8191 18.6841L15.8016 18.6953L16.2871 19.4532ZM14.503 22.728L15.0299 23.4577L15.0299 23.4576L14.503 22.728ZM15.1183 21.5001L14.2649 21.2144L14.2643 21.216L15.1183 21.5001ZM3.43872 6.5465L2.65892 6.09716L2.65892 6.09716L3.43872 6.5465ZM2.92457 7.43879L3.70437 7.88813L3.70437 7.88813L2.92457 7.43879ZM2.92457 17.5771L3.70437 17.1277L2.92457 17.5771ZM3.43871 18.4693L2.6589 18.9187L2.6589 18.9187L3.43871 18.4693ZM4.25453 13.9401L4.92534 14.5402L4.94371 14.5196L4.96078 14.498L4.25453 13.9401ZM7.07704 19.0741L6.87479 18.1971L6.85378 18.202L6.83302 18.2078L7.07704 19.0741ZM8.49238 19.2507L8.94225 18.4712L8.92327 18.4602L8.90377 18.4502L8.49238 19.2507ZM4.3528 19.6161L4.69187 18.7825L4.69187 18.7825L4.3528 19.6161ZM5.80603 19.4322L5.56201 18.5659L5.56032 18.5663L5.80603 19.4322ZM3.1805 15.1409L3.84974 15.7427L3.85131 15.7409L3.1805 15.1409ZM7.07709 5.94169L6.83308 6.80798L6.85384 6.81383L6.87485 6.81867L7.07709 5.94169ZM8.49219 5.76525L8.90349 6.56577L8.92299 6.55575L8.94198 6.54479L8.49219 5.76525ZM4.2545 11.0757L4.96075 10.5178L4.94368 10.4962L4.92531 10.4757L4.2545 11.0757ZM2.41321 8.7243L1.51813 8.81833L1.51813 8.81834L2.41321 8.7243ZM3.1805 9.87496L3.85131 9.27495L3.84973 9.27319L3.1805 9.87496ZM5.806 5.58367L5.56031 6.44949L5.562 6.44997L5.806 5.58367ZM9.66412 4.55478L10.5044 4.87709L10.5114 4.85895L10.5175 4.84053L9.66412 4.55478ZM8.84311 5.56277L9.2929 6.34232L9.31096 6.3319L9.32852 6.32065L8.84311 5.56277ZM10.012 3.51583L10.8654 3.80159L10.866 3.79994L10.012 3.51583ZM9.66408 20.4611L10.5175 20.1753L10.5113 20.1569L10.5044 20.1388L9.66408 20.4611ZM8.84325 19.4532L9.32873 18.6953L9.31117 18.6841L9.29312 18.6737L8.84325 19.4532ZM10.6273 22.728L10.1004 23.4576L10.1004 23.4577L10.6273 22.728ZM10.012 21.5001L10.866 21.216L10.8654 21.2144L10.012 21.5001ZM20.9118 6.99584L21.4259 7.88813L22.9855 6.98945L22.4714 6.09716L20.9118 6.99584ZM21.4259 17.1277L20.9118 18.02L22.4714 18.9187L22.9855 18.0264L21.4259 17.1277ZM21.582 13.3823C21.4664 13.2359 21.3269 12.8639 21.3269 12.5078H19.5269C19.5269 13.1937 19.7601 13.9796 20.1695 14.498L21.582 13.3823ZM18.2555 18.1971C17.5705 18.0392 16.8518 18.1288 16.2265 18.4502L17.0493 20.0511C17.2965 19.9241 17.5804 19.8887 17.851 19.9511L18.2555 18.1971ZM20.9118 18.02C20.7065 18.3763 20.5907 18.5742 20.4917 18.7068C20.4071 18.8201 20.3957 18.7998 20.4384 18.7825L21.1166 20.4498C21.4901 20.2979 21.7414 20.0416 21.9339 19.7839C22.112 19.5454 22.2879 19.2371 22.4714 18.9187L20.9118 18.02ZM19.0786 20.298C19.4316 20.3982 19.7725 20.4964 20.0663 20.5431C20.3841 20.5936 20.7429 20.6018 21.1166 20.4498L20.4384 18.7825C20.4813 18.765 20.4876 18.7875 20.3486 18.7654C20.1856 18.7395 19.9652 18.6785 19.57 18.5663L19.0786 20.298ZM22.9855 18.0264C23.1574 17.7282 23.3253 17.4394 23.4373 17.181C23.5584 16.9012 23.6519 16.5758 23.6122 16.1975L21.822 16.3856C21.8176 16.344 21.8377 16.3451 21.7855 16.4657C21.724 16.6078 21.6186 16.7934 21.4259 17.1277L22.9855 18.0264ZM21.2806 15.7427C21.5385 16.0295 21.6801 16.1891 21.7697 16.3151C21.8458 16.4221 21.8264 16.4272 21.822 16.3856L23.6122 16.1975C23.5724 15.8192 23.4133 15.5203 23.2366 15.2719C23.0734 15.0424 22.8491 14.795 22.619 14.5391L21.2806 15.7427ZM17.851 5.06471C17.5805 5.12709 17.2966 5.09174 17.0494 4.96473L16.2268 6.56577C16.852 6.88699 17.5705 6.97662 18.2555 6.81867L17.851 5.06471ZM20.1696 10.5178C19.7602 11.0361 19.5269 11.8222 19.5269 12.5078H21.3269C21.3269 12.1521 21.4665 11.7799 21.582 11.6336L20.1696 10.5178ZM21.4259 7.88813C21.6186 8.22244 21.724 8.40812 21.7855 8.55012C21.8377 8.6708 21.8177 8.67189 21.822 8.63028L23.6122 8.81833C23.6519 8.44004 23.5584 8.11464 23.4373 7.83487C23.3253 7.57643 23.1574 7.28769 22.9855 6.98945L21.4259 7.88813ZM22.619 10.4767C22.8491 10.2209 23.0734 9.97348 23.2366 9.744C23.4133 9.49553 23.5724 9.19668 23.6122 8.81834L21.822 8.63027C21.8264 8.58862 21.8458 8.59377 21.7697 8.7008C21.6801 8.82681 21.5385 8.98637 21.2806 9.27319L22.619 10.4767ZM22.4714 6.09716C22.2879 5.77869 22.112 5.47041 21.9339 5.23195C21.7414 4.9742 21.4901 4.71794 21.1166 4.56603L20.4384 6.2334C20.3957 6.21604 20.4071 6.19575 20.4917 6.30906C20.5907 6.44165 20.7064 6.63948 20.9118 6.99584L22.4714 6.09716ZM19.57 6.44949C19.9652 6.33734 20.1856 6.27636 20.3486 6.25048C20.4876 6.2284 20.4812 6.25081 20.4384 6.2334L21.1166 4.56603C20.7429 4.41407 20.3841 4.42229 20.0663 4.47275C19.7725 4.5194 19.4316 4.61767 19.0786 4.71786L19.57 6.44949ZM14.6259 4.87709C14.8538 5.47141 15.2658 5.97736 15.8018 6.32065L16.7726 4.80489C16.5605 4.66905 16.397 4.46854 16.3065 4.23247L14.6259 4.87709ZM13.1458 2.99131C13.5282 2.99131 13.7393 2.99267 13.8912 3.01006C14.0201 3.02479 14.0104 3.04234 13.976 3.01756L15.0299 1.5583C14.7233 1.3369 14.3967 1.25613 14.0958 1.22172C13.818 1.18994 13.4866 1.19131 13.1458 1.19131V2.99131ZM15.9723 3.23173C15.8645 2.90762 15.7611 2.59249 15.6433 2.33879C15.5158 2.0642 15.3363 1.7796 15.0299 1.5583L13.976 3.01756C13.9419 2.99288 13.9557 2.97847 14.0107 3.0968C14.0753 3.23602 14.1434 3.43653 14.2643 3.79994L15.9723 3.23173ZM16.3065 20.7834C16.3971 20.5473 16.5605 20.3468 16.7725 20.211L15.8016 18.6953C15.2657 19.0386 14.8538 19.5445 14.6259 20.1388L16.3065 20.7834ZM13.1458 23.8246C13.4866 23.8246 13.818 23.826 14.0958 23.7942C14.3966 23.7598 14.7233 23.6791 15.0299 23.4577L13.976 21.9984C14.0104 21.9736 14.0201 21.9912 13.8912 22.0059C13.7393 22.0233 13.5282 22.0246 13.1458 22.0246V23.8246ZM14.2643 21.216C14.1434 21.5794 14.0753 21.7799 14.0107 21.9191C13.9557 22.0375 13.9419 22.0231 13.976 21.9984L15.0299 23.4576C15.3363 23.2363 15.5158 22.9517 15.6433 22.6772C15.7611 22.4235 15.8645 22.1083 15.9723 21.7842L14.2643 21.216ZM14.2649 3.80159L14.6128 4.84053L16.3196 4.26902L15.9717 3.23008L14.2649 3.80159ZM17.0879 4.9857L16.737 4.78323L15.8374 6.34232L16.1883 6.54479L17.0879 4.9857ZM18.2972 6.80798L19.5683 6.44997L19.0803 4.71738L17.8092 5.0754L18.2972 6.80798ZM21.279 9.27495L20.205 10.4757L21.5466 11.6757L22.6206 10.475L21.279 9.27495ZM20.205 14.5402L21.279 15.7409L22.6206 14.5409L21.5466 13.3401L20.205 14.5402ZM17.8092 19.9404L19.0803 20.2984L19.5683 18.5659L18.2973 18.2078L17.8092 19.9404ZM16.7369 20.2327L17.0878 20.0302L16.188 18.4712L15.8372 18.6737L16.7369 20.2327ZM14.6128 20.1753L14.2649 21.2144L15.9717 21.7859L16.3196 20.7468L14.6128 20.1753ZM2.65892 6.09716L2.14476 6.98945L3.70437 7.88813L4.21853 6.99584L2.65892 6.09716ZM2.14476 18.0264L2.6589 18.9187L4.21851 18.02L3.70437 17.1277L2.14476 18.0264ZM4.96078 14.498C5.37025 13.9796 5.60336 13.1937 5.60336 12.5078H3.80336C3.80336 12.8639 3.66387 13.2359 3.54827 13.3823L4.96078 14.498ZM7.27929 19.9511C7.54986 19.8887 7.83377 19.9241 8.08099 20.0511L8.90377 18.4502C8.2785 18.1288 7.55982 18.0392 6.87479 18.1971L7.27929 19.9511ZM2.6589 18.9187C2.84241 19.2371 3.01833 19.5454 3.19643 19.7839C3.38893 20.0416 3.64023 20.2979 4.01374 20.4498L4.69187 18.7825C4.73456 18.7998 4.72324 18.8201 4.6386 18.7068C4.53957 18.5742 4.42385 18.3763 4.21851 18.02L2.6589 18.9187ZM5.56032 18.5663C5.1651 18.6785 4.94473 18.7395 4.78173 18.7654C4.64268 18.7875 4.64905 18.765 4.69187 18.7825L4.01373 20.4498C4.38737 20.6018 4.74622 20.5936 5.06401 20.5431C5.35785 20.4964 5.69869 20.3982 6.05174 20.298L5.56032 18.5663ZM3.70437 17.1277C3.51174 16.7934 3.40633 16.6078 3.34484 16.4657C3.29258 16.3451 3.31265 16.344 3.30828 16.3856L1.51813 16.1975C1.47839 16.5758 1.5719 16.9012 1.69305 17.181C1.80496 17.4394 1.97292 17.7282 2.14476 18.0264L3.70437 17.1277ZM2.51127 14.5391C2.28123 14.795 2.0569 15.0424 1.8937 15.2719C1.717 15.5203 1.55788 15.8192 1.51813 16.1975L3.30828 16.3856C3.30391 16.4272 3.28446 16.4221 3.36058 16.3151C3.45019 16.1891 3.59183 16.0295 3.84973 15.7427L2.51127 14.5391ZM6.87485 6.81867C7.55976 6.97662 8.2783 6.88699 8.90349 6.56577L8.08089 4.96473C7.8337 5.09174 7.54984 5.12709 7.27933 5.06471L6.87485 6.81867ZM3.54825 11.6336C3.66385 11.7799 3.80336 12.1521 3.80336 12.5078H5.60336C5.60336 11.8222 5.37015 11.0361 4.96075 10.5178L3.54825 11.6336ZM2.14476 6.98945C1.97291 7.28769 1.80495 7.57643 1.69304 7.83487C1.5719 8.11464 1.47839 8.44004 1.51813 8.81833L3.30828 8.63028C3.31265 8.67189 3.29258 8.6708 3.34483 8.55012C3.40633 8.40812 3.51173 8.22244 3.70437 7.88813L2.14476 6.98945ZM3.84973 9.27319C3.59182 8.98637 3.45019 8.82681 3.36058 8.7008C3.28446 8.59377 3.3039 8.58862 3.30828 8.63027L1.51813 8.81834C1.55788 9.19668 1.71699 9.49553 1.8937 9.744C2.0569 9.97348 2.28123 10.2209 2.51127 10.4767L3.84973 9.27319ZM4.21853 6.99584C4.42387 6.63948 4.53958 6.44165 4.63861 6.30906C4.72323 6.19575 4.73456 6.21604 4.69188 6.2334L4.01373 4.56603C3.64024 4.71794 3.38895 4.9742 3.19645 5.23195C3.01835 5.47041 2.84243 5.77869 2.65892 6.09716L4.21853 6.99584ZM6.0517 4.71786C5.69865 4.61767 5.35782 4.5194 5.06398 4.47275C4.7462 4.42229 4.38735 4.41407 4.01373 4.56603L4.69188 6.2334C4.64906 6.25081 4.64269 6.2284 4.78173 6.25048C4.94473 6.27636 5.1651 6.33734 5.56031 6.44949L6.0517 4.71786ZM8.82381 4.23247C8.73326 4.46854 8.56981 4.66905 8.35771 4.80489L9.32852 6.32065C9.86451 5.97736 10.2765 5.47141 10.5044 4.87709L8.82381 4.23247ZM11.9845 1.19131C11.6437 1.19131 11.3123 1.18994 11.0345 1.22172C10.7336 1.25613 10.407 1.3369 10.1004 1.5583L11.1543 3.01756C11.1199 3.04234 11.1102 3.02479 11.2391 3.01006C11.391 2.99267 11.6021 2.99131 11.9845 2.99131V1.19131ZM10.866 3.79994C10.9869 3.43653 11.055 3.23602 11.1196 3.0968C11.1746 2.97847 11.1884 2.99288 11.1543 3.01756L10.1004 1.5583C9.79399 1.7796 9.61452 2.0642 9.48703 2.33879C9.36924 2.59249 9.26583 2.90762 9.158 3.23173L10.866 3.79994ZM10.5044 20.1388C10.2765 19.5445 9.86461 19.0386 9.32873 18.6953L8.35777 20.211C8.56982 20.3468 8.73324 20.5473 8.82377 20.7834L10.5044 20.1388ZM11.9845 22.0246C11.6021 22.0246 11.391 22.0233 11.2391 22.0059C11.1102 21.9912 11.1199 21.9736 11.1543 21.9984L10.1004 23.4577C10.407 23.6791 10.7337 23.7598 11.0345 23.7942C11.3123 23.826 11.6437 23.8246 11.9845 23.8246V22.0246ZM9.158 21.7842C9.26583 22.1083 9.36924 22.4235 9.48703 22.6772C9.61452 22.9517 9.79398 23.2363 10.1004 23.4576L11.1543 21.9984C11.1884 22.0231 11.1746 22.0375 11.1196 21.9191C11.055 21.7799 10.9869 21.5794 10.866 21.216L9.158 21.7842ZM9.15855 3.23008L8.81068 4.26902L10.5175 4.84053L10.8654 3.80159L9.15855 3.23008ZM8.94198 6.54479L9.2929 6.34232L8.39333 4.78323L8.04241 4.9857L8.94198 6.54479ZM7.32109 5.0754L6.05001 4.71738L5.562 6.44997L6.83308 6.80798L7.32109 5.0754ZM2.50969 10.475L3.58369 11.6757L4.92531 10.4757L3.85131 9.27495L2.50969 10.475ZM3.58372 13.3401L2.50969 14.5409L3.85131 15.7409L4.92534 14.5402L3.58372 13.3401ZM6.83302 18.2078L5.56201 18.5659L6.05005 20.2984L7.32106 19.9404L6.83302 18.2078ZM9.29312 18.6737L8.94225 18.4712L8.04251 20.0302L8.39338 20.2327L9.29312 18.6737ZM8.81065 20.7468L9.15855 21.7859L10.8654 21.2144L10.5175 20.1753L8.81065 20.7468ZM13.1458 22.0246H11.9845V23.8246H13.1458V22.0246ZM11.9845 2.99131H13.1458V1.19131H11.9845V2.99131Z" fill="white"/>
<path d="M16.1662 12.4998C16.1662 14.5134 14.5339 16.1457 12.5203 16.1457C10.5068 16.1457 8.87451 14.5134 8.87451 12.4998C8.87451 10.4863 10.5068 8.854 12.5203 8.854C14.5339 8.854 16.1662 10.4863 16.1662 12.4998Z" stroke="white" stroke-width="1.8"/>
</g>
<defs>
<clipPath id="clip0_203_1398">
<rect width="25" height="25" fill="white"/>
</clipPath>
</defs>
</svg>
