<svg width="25" height="25" viewBox="0 0 25 25" fill="none" xmlns="http://www.w3.org/2000/svg">
<path d="M21.6916 6.32866L22.4647 5.86783V5.86783L21.6916 6.32866ZM22.2057 7.1912L21.4327 7.65203V7.65203L22.2057 7.1912ZM22.2057 16.9915L21.4327 16.5307L22.2057 16.9915ZM21.6916 17.8541L22.4647 18.3149V18.3149L21.6916 17.8541ZM20.8758 13.4759L20.1789 14.0453L20.1964 14.0668L20.2152 14.0871L20.8758 13.4759ZM18.0533 18.4387L18.2897 17.5703L18.2695 17.5648L18.2491 17.5603L18.0533 18.4387ZM16.6379 18.6094L16.2375 17.8033L16.2182 17.8129L16.1994 17.8234L16.6379 18.6094ZM20.7775 18.9626L20.4482 18.125L20.4482 18.125L20.7775 18.9626ZM19.3243 18.7848L19.5624 17.9169L19.5607 17.9164L19.3243 18.7848ZM21.9498 14.6366L21.2892 15.2478L21.2908 15.2496L21.9498 14.6366ZM18.0532 5.74401L18.249 6.62245L18.2695 6.61789L18.2897 6.6124L18.0532 5.74401ZM16.6381 5.57345L16.1997 6.35946L16.2185 6.36993L16.2378 6.3795L16.6381 5.57345ZM20.8758 10.7069L20.2152 10.0956L20.1964 10.116L20.1789 10.1374L20.8758 10.7069ZM22.7171 8.43387L23.6118 8.53111V8.5311L22.7171 8.43387ZM21.9498 9.54617L21.2908 8.93318L21.2892 8.93493L21.9498 9.54617ZM19.3243 5.39793L19.5607 6.26631L19.5624 6.26586L19.3243 5.39793ZM15.4662 4.40333L14.6158 4.6979L14.6223 4.71673L14.6296 4.73526L15.4662 4.40333ZM16.2872 5.37772L15.8134 6.14293L15.8309 6.15373L15.8488 6.16373L16.2872 5.37772ZM15.1183 3.39901L14.2673 3.69189L14.2679 3.69358L15.1183 3.39901ZM15.4662 19.7794L14.6297 19.4475L14.6223 19.466L14.6158 19.4848L15.4662 19.7794ZM16.2871 18.8051L15.8486 18.0191L15.8307 18.0291L15.8132 18.0399L16.2871 18.8051ZM14.503 21.9708L15.0181 22.7088L15.0181 22.7088L14.503 21.9708ZM15.1183 20.7838L14.2679 20.4893L14.2673 20.4909L15.1183 20.7838ZM3.43872 6.32866L2.66565 5.86783L2.66565 5.86783L3.43872 6.32866ZM2.92457 7.1912L3.69764 7.65203L3.69764 7.65203L2.92457 7.1912ZM2.92457 16.9915L3.69764 16.5307L2.92457 16.9915ZM3.43871 17.8541L2.66563 18.3149L2.66563 18.3149L3.43871 17.8541ZM4.25453 13.4759L4.91512 14.0871L4.93393 14.0668L4.95145 14.0453L4.25453 13.4759ZM7.07704 18.4387L6.88121 17.5603L6.86078 17.5648L6.84059 17.5703L7.07704 18.4387ZM8.49238 18.6094L8.93086 17.8234L8.91208 17.8129L8.89281 17.8033L8.49238 18.6094ZM4.3528 18.9626L4.6821 18.125L4.6821 18.125L4.3528 18.9626ZM5.80603 18.7848L5.56957 17.9164L5.56792 17.9169L5.80603 18.7848ZM3.1805 14.6366L3.83948 15.2496L3.84109 15.2478L3.1805 14.6366ZM7.07709 5.74401L6.84065 6.6124L6.86084 6.61789L6.88127 6.62245L7.07709 5.74401ZM8.49219 5.57345L8.89253 6.3795L8.9118 6.36993L8.93059 6.35946L8.49219 5.57345ZM4.2545 10.7069L4.95142 10.1374L4.9339 10.116L4.91509 10.0956L4.2545 10.7069ZM2.41321 8.43387L1.51847 8.5311L1.51847 8.53111L2.41321 8.43387ZM3.1805 9.54617L3.84109 8.93492L3.83947 8.93318L3.1805 9.54617ZM5.806 5.39793L5.56792 6.26586L5.56957 6.26631L5.806 5.39793ZM9.66411 4.40333L10.5007 4.73526L10.508 4.71673L10.5145 4.6979L9.66411 4.40333ZM8.84311 5.37772L9.28151 6.16373L9.29943 6.15373L9.31687 6.14293L8.84311 5.37772ZM10.012 3.39901L10.8624 3.69358L10.863 3.69189L10.012 3.39901ZM9.66408 19.7794L10.5145 19.4848L10.508 19.466L10.5006 19.4475L9.66408 19.7794ZM8.84325 18.8051L9.31709 18.0399L9.29964 18.0291L9.28173 18.0191L8.84325 18.8051ZM10.6273 21.9708L10.1122 22.7088L10.1122 22.7088L10.6273 21.9708ZM10.012 20.7838L10.863 20.4909L10.8624 20.4893L10.012 20.7838ZM20.9185 6.78948L21.4327 7.65203L22.9788 6.73038L22.4647 5.86783L20.9185 6.78948ZM21.4327 16.5307L20.9185 17.3932L22.4647 18.3149L22.9788 17.4524L21.4327 16.5307ZM21.5727 12.9064C21.4623 12.7713 21.3269 12.4228 21.3269 12.0913H19.5269C19.5269 12.767 19.7642 13.5379 20.1789 14.0453L21.5727 12.9064ZM18.2491 17.5603C17.5712 17.4091 16.8593 17.4944 16.2375 17.8033L17.0383 19.4154C17.289 19.2908 17.5797 19.2552 17.8574 19.3171L18.2491 17.5603ZM20.9185 17.3932C20.7128 17.7383 20.5983 17.9275 20.5006 18.0539C20.4187 18.1599 20.4085 18.1407 20.4482 18.125L21.1068 19.8002C21.4773 19.6546 21.7297 19.4072 21.925 19.1545C22.1044 18.9222 22.2815 18.6221 22.4647 18.3149L20.9185 17.3932ZM19.0862 19.6527C19.4399 19.7498 19.779 19.8442 20.0709 19.889C20.3855 19.9373 20.7385 19.945 21.1068 19.8002L20.4482 18.125C20.4857 18.1103 20.4863 18.1317 20.344 18.1099C20.179 18.0846 19.9569 18.0251 19.5624 17.9169L19.0862 19.6527ZM22.9788 17.4524C23.1501 17.165 23.3195 16.8835 23.4327 16.6309C23.5555 16.3568 23.6531 16.0318 23.6118 15.6516L21.8224 15.8461C21.8164 15.7915 21.8406 15.782 21.79 15.895C21.7298 16.0295 21.6258 16.2067 21.4327 16.5307L22.9788 17.4524ZM21.2908 15.2496C21.5492 15.5273 21.6897 15.6804 21.7782 15.8007C21.8533 15.9028 21.8282 15.9001 21.8224 15.8461L23.6118 15.6516C23.5706 15.2722 23.4058 14.9756 23.2281 14.734C23.0638 14.5107 22.8384 14.2704 22.6088 14.0236L21.2908 15.2496ZM17.8574 4.86557C17.5797 4.92746 17.2891 4.89187 17.0384 4.76739L16.2378 6.3795C16.8595 6.68831 17.5713 6.77354 18.249 6.62245L17.8574 4.86557ZM20.1789 10.1374C19.7643 10.6448 19.5269 11.4157 19.5269 12.0913H21.3269C21.3269 11.7601 21.4623 11.4115 21.5727 11.2764L20.1789 10.1374ZM21.4327 7.65203C21.6258 7.9761 21.7298 8.15325 21.79 8.28771C21.8406 8.40075 21.8164 8.39128 21.8224 8.33663L23.6118 8.5311C23.6531 8.151 23.5555 7.82592 23.4327 7.55186C23.3196 7.29923 23.1501 7.01777 22.9788 6.73038L21.4327 7.65203ZM22.6088 10.1592C22.8384 9.91233 23.0638 9.67204 23.2281 9.4487C23.4058 9.20712 23.5706 8.91052 23.6118 8.53111L21.8224 8.33663C21.8282 8.28268 21.8533 8.27995 21.7782 8.38202C21.6897 8.50233 21.5492 8.65545 21.2908 8.93318L22.6088 10.1592ZM22.4647 5.86783C22.2815 5.56058 22.1044 5.26055 21.925 5.02827C21.7297 4.77555 21.4773 4.52818 21.1068 4.38251L20.4482 6.05769C20.4085 6.04208 20.4187 6.02282 20.5006 6.12878C20.5982 6.25519 20.7128 6.4444 20.9185 6.78948L22.4647 5.86783ZM19.5624 6.26586C19.9569 6.15763 20.179 6.09817 20.344 6.07285C20.4862 6.05101 20.4857 6.07244 20.4482 6.05769L21.1068 4.38251C20.7385 4.2377 20.3855 4.2454 20.0709 4.29368C19.779 4.33848 19.4399 4.43296 19.0862 4.52999L19.5624 6.26586ZM14.6296 4.73526C14.8616 5.31986 15.2784 5.81169 15.8134 6.14293L16.7609 4.61251C16.5479 4.4806 16.3893 4.28951 16.3027 4.07139L14.6296 4.73526ZM13.1458 2.92197C13.5275 2.92197 13.7406 2.92325 13.8946 2.94028C14.0273 2.95495 14.0209 2.97311 13.9878 2.95001L15.0181 1.47407C14.7128 1.26091 14.3894 1.18403 14.0924 1.15118C13.8167 1.1207 13.4873 1.12197 13.1458 1.12197V2.92197ZM15.9693 3.10614C15.8618 2.79381 15.7574 2.4861 15.6382 2.23792C15.5082 1.96721 15.3258 1.68888 15.0181 1.47407L13.9878 2.95001C13.9524 2.92527 13.9633 2.90813 14.0157 3.01724C14.0789 3.14887 14.1461 3.33962 14.2673 3.69189L15.9693 3.10614ZM16.3028 20.1113C16.3893 19.8932 16.5479 19.7022 16.7609 19.5703L15.8132 18.0399C15.2783 18.3712 14.8616 18.863 14.6297 19.4475L16.3028 20.1113ZM13.1458 23.0609C13.4873 23.0609 13.8167 23.0621 14.0924 23.0317C14.3894 22.9988 14.7128 22.9219 15.0181 22.7088L13.9878 21.2328C14.0209 21.2097 14.0273 21.2279 13.8946 21.2426C13.7406 21.2596 13.5275 21.2609 13.1458 21.2609V23.0609ZM14.2673 20.4909C14.1461 20.8432 14.0789 21.034 14.0157 21.1656C13.9633 21.2747 13.9524 21.2576 13.9878 21.2328L15.0181 22.7088C15.3258 22.494 15.5082 22.2156 15.6382 21.9449C15.7574 21.6967 15.8618 21.389 15.9693 21.0767L14.2673 20.4909ZM14.2679 3.69358L14.6158 4.6979L16.3166 4.10876L15.9687 3.10445L14.2679 3.69358ZM17.0765 4.78744L16.7256 4.59171L15.8488 6.16373L16.1997 6.35946L17.0765 4.78744ZM18.2897 6.6124L19.5607 6.26631L19.0879 4.52954L17.8168 4.87562L18.2897 6.6124ZM21.2892 8.93493L20.2152 10.0956L21.5364 11.3181L22.6104 10.1574L21.2892 8.93493ZM20.2152 14.0871L21.2892 15.2478L22.6104 14.0253L21.5364 12.8646L20.2152 14.0871ZM17.8168 19.3071L19.0878 19.6532L19.5607 17.9164L18.2897 17.5703L17.8168 19.3071ZM16.7255 19.5911L17.0764 19.3953L16.1994 17.8234L15.8486 18.0191L16.7255 19.5911ZM14.6158 19.4848L14.2679 20.4893L15.9687 21.0784L16.3166 20.074L14.6158 19.4848ZM2.66565 5.86783L2.15149 6.73038L3.69764 7.65203L4.2118 6.78948L2.66565 5.86783ZM2.15149 17.4524L2.66563 18.3149L4.21178 17.3932L3.69764 16.5307L2.15149 17.4524ZM4.95145 14.0453C5.36611 13.5379 5.60336 12.767 5.60336 12.0913H3.80336C3.80336 12.4228 3.66801 12.7713 3.5576 12.9064L4.95145 14.0453ZM7.27288 19.3171C7.55057 19.2552 7.84129 19.2908 8.09195 19.4154L8.89281 17.8033C8.27097 17.4944 7.55911 17.4091 6.88121 17.5603L7.27288 19.3171ZM2.66563 18.3149C2.84878 18.6221 3.02586 18.9222 3.20532 19.1545C3.40058 19.4072 3.65298 19.6546 4.0235 19.8002L4.6821 18.125C4.72182 18.1407 4.71159 18.1599 4.62971 18.0539C4.53204 17.9275 4.41747 17.7383 4.21178 17.3932L2.66563 18.3149ZM5.56792 17.9169C5.17335 18.0251 4.95127 18.0846 4.78632 18.1099C4.64404 18.1317 4.64459 18.1103 4.6821 18.125L4.0235 19.8002C4.39183 19.945 4.74485 19.9373 5.05941 19.889C5.3513 19.8442 5.69043 19.7498 6.04413 19.6527L5.56792 17.9169ZM3.69764 16.5307C3.50447 16.2067 3.40054 16.0295 3.3403 15.895C3.28966 15.782 3.31388 15.7915 3.30794 15.8461L1.51848 15.6516C1.47717 16.0318 1.57482 16.3568 1.69758 16.6309C1.81075 16.8835 1.98019 17.165 2.15149 17.4524L3.69764 16.5307ZM2.52153 14.0236C2.29193 14.2704 2.0665 14.5107 1.90219 14.734C1.72447 14.9756 1.55971 15.2722 1.51848 15.6516L3.30794 15.8461C3.30208 15.9001 3.27699 15.9028 3.35209 15.8007C3.44059 15.6804 3.58112 15.5273 3.83948 15.2496L2.52153 14.0236ZM6.88127 6.62245C7.55904 6.77354 8.27077 6.68831 8.89253 6.3795L8.09185 4.76739C7.84122 4.89187 7.55056 4.92746 7.27291 4.86557L6.88127 6.62245ZM3.55758 11.2764C3.66798 11.4115 3.80336 11.7601 3.80336 12.0913H5.60336C5.60336 11.4157 5.36601 10.6448 4.95142 10.1374L3.55758 11.2764ZM2.15149 6.73038C1.98018 7.01777 1.81075 7.29923 1.69758 7.55186C1.57481 7.82592 1.47717 8.151 1.51847 8.5311L3.30794 8.33663C3.31388 8.39128 3.28966 8.40075 3.3403 8.28771C3.40053 8.15325 3.50446 7.9761 3.69764 7.65203L2.15149 6.73038ZM3.83947 8.93318C3.58112 8.65545 3.44059 8.50233 3.35208 8.38202C3.27699 8.27995 3.30207 8.28268 3.30794 8.33663L1.51847 8.53111C1.55971 8.91052 1.72446 9.20712 1.90219 9.4487C2.0665 9.67204 2.29193 9.91233 2.52152 10.1592L3.83947 8.93318ZM4.2118 6.78948C4.41749 6.4444 4.53206 6.25519 4.62972 6.12878C4.71159 6.02282 4.72181 6.04208 4.68211 6.05769L4.02349 4.38251C3.65298 4.52818 3.40059 4.77555 3.20534 5.02827C3.02587 5.26055 2.8488 5.56058 2.66565 5.86783L4.2118 6.78948ZM6.04409 4.52999C5.69039 4.43296 5.35127 4.33848 5.05939 4.29368C4.74483 4.2454 4.39181 4.2377 4.02349 4.38251L4.68211 6.05769C4.6446 6.07244 4.64405 6.05101 4.78633 6.07285C4.95127 6.09817 5.17335 6.15763 5.56792 6.26586L6.04409 4.52999ZM8.82756 4.07139C8.74102 4.28951 8.58242 4.4806 8.36935 4.61251L9.31687 6.14293C9.8519 5.81169 10.2687 5.31986 10.5007 4.73526L8.82756 4.07139ZM11.9845 1.12197C11.643 1.12197 11.3136 1.1207 11.0379 1.15118C10.7409 1.18403 10.4175 1.26091 10.1122 1.47407L11.1425 2.95001C11.1094 2.97311 11.103 2.95495 11.2357 2.94028C11.3897 2.92325 11.6028 2.92197 11.9845 2.92197V1.12197ZM10.863 3.69189C10.9842 3.33962 11.0514 3.14887 11.1146 3.01724C11.167 2.90813 11.1779 2.92527 11.1425 2.95001L10.1122 1.47407C9.80447 1.68888 9.62208 1.96721 9.49206 2.23792C9.37286 2.4861 9.26846 2.79381 9.16097 3.10614L10.863 3.69189ZM10.5006 19.4475C10.2687 18.863 9.852 18.3712 9.31709 18.0399L8.36941 19.5703C8.58243 19.7022 8.74099 19.8932 8.82753 20.1113L10.5006 19.4475ZM11.9845 21.2609C11.6028 21.2609 11.3897 21.2596 11.2357 21.2426C11.103 21.2279 11.1094 21.2097 11.1425 21.2328L10.1122 22.7088C10.4175 22.9219 10.7409 22.9988 11.0379 23.0317C11.3136 23.0621 11.643 23.0609 11.9845 23.0609V21.2609ZM9.16097 21.0767C9.26846 21.389 9.37286 21.6967 9.49206 21.9449C9.62208 22.2156 9.80447 22.494 10.1122 22.7088L11.1425 21.2328C11.1779 21.2576 11.167 21.2747 11.1146 21.1656C11.0514 21.034 10.9842 20.8432 10.863 20.4909L9.16097 21.0767ZM9.16156 3.10445L8.81369 4.10876L10.5145 4.6979L10.8624 3.69358L9.16156 3.10445ZM8.93059 6.35946L9.28151 6.16373L8.40472 4.59171L8.0538 4.78744L8.93059 6.35946ZM7.31353 4.87562L6.04244 4.52954L5.56957 6.26631L6.84065 6.6124L7.31353 4.87562ZM2.51991 10.1574L3.59391 11.3181L4.91509 10.0956L3.84109 8.93493L2.51991 10.1574ZM3.59394 12.8646L2.51991 14.0253L3.84109 15.2478L4.91512 14.0871L3.59394 12.8646ZM6.84059 17.5703L5.56957 17.9164L6.04248 19.6532L7.3135 19.3071L6.84059 17.5703ZM9.28173 18.0191L8.93086 17.8234L8.0539 19.3953L8.40477 19.5911L9.28173 18.0191ZM8.81365 20.074L9.16156 21.0784L10.8624 20.4893L10.5145 19.4848L8.81365 20.074ZM13.1458 21.2609H11.9845V23.0609H13.1458V21.2609ZM11.9845 2.92197H13.1458V1.12197H11.9845V2.92197Z" fill="white"/>
<path d="M16.1662 12.0834C16.1662 14.0298 14.5339 15.6077 12.5203 15.6077C10.5068 15.6077 8.87451 14.0298 8.87451 12.0834C8.87451 10.137 10.5068 8.55908 12.5203 8.55908C14.5339 8.55908 16.1662 10.137 16.1662 12.0834Z" stroke="white" stroke-width="1.8"/>
</svg>
