<svg width="150" height="151" viewBox="0 0 150 151" fill="none" xmlns="http://www.w3.org/2000/svg">
<rect width="97.5" height="93.75" transform="translate(26.25 45)" fill="#7C3AED"/>
<g opacity="0.2">
<path d="M4.19886 68.5959C-0.191136 61.5704 1.94533 52.3164 8.97079 47.9264L78.9348 4.20804C85.9602 -0.181949 95.2143 1.95452 99.6043 8.97998L143.323 78.9439C147.713 85.9694 145.576 95.2234 138.551 99.6134L68.5867 143.332C61.5613 147.722 52.3072 145.585 47.9172 138.56L4.19886 68.5959Z" fill="#7C3AED"/>
</g>
<g opacity="0.4">
<path d="M7.88469 52.9312C5.60123 44.9679 10.2057 36.6612 18.1691 34.3778L97.4732 11.6377C105.437 9.35422 113.743 13.9587 116.027 21.922L138.767 101.226C141.05 109.189 136.446 117.496 128.482 119.78L49.1783 142.52C41.2149 144.803 32.9082 140.199 30.6248 132.235L7.88469 52.9312Z" fill="#7C3AED"/>
</g>
<path d="M16.0463 52.8009C15.4684 44.5368 21.6993 37.369 29.9634 36.7911L112.262 31.0362C120.527 30.4583 127.694 36.6892 128.272 44.9533L134.027 127.252C134.605 135.516 128.374 142.684 120.11 143.262L37.811 149.017C29.5469 149.595 22.3791 143.364 21.8012 135.1L16.0463 52.8009Z" fill="#7C3AED"/>
<g clip-path="url(#clip0_378_1920)">
<g filter="url(#filter0_d_378_1920)">
<path d="M69.8424 109.941L39.2436 83.3414L30.1811 93.6926L71.1996 129.349L147.744 41.2954L137.397 32.3015L69.8424 109.941Z" fill="url(#paint0_linear_378_1920)" shape-rendering="crispEdges"/>
</g>
</g>
<defs>
<filter id="filter0_d_378_1920" x="27.1811" y="29.3013" width="123.563" height="103.048" filterUnits="userSpaceOnUse" color-interpolation-filters="sRGB">
<feFlood flood-opacity="0" result="BackgroundImageFix"/>
<feColorMatrix in="SourceAlpha" type="matrix" values="0 0 0 0 0 0 0 0 0 0 0 0 0 0 0 0 0 0 127 0" result="hardAlpha"/>
<feOffset/>
<feGaussianBlur stdDeviation="1.5"/>
<feComposite in2="hardAlpha" operator="out"/>
<feColorMatrix type="matrix" values="0 0 0 0 1 0 0 0 0 1 0 0 0 0 1 0 0 0 0.4 0"/>
<feBlend mode="normal" in2="BackgroundImageFix" result="effect1_dropShadow_378_1920"/>
<feBlend mode="normal" in="SourceGraphic" in2="effect1_dropShadow_378_1920" result="shape"/>
</filter>
<linearGradient id="paint0_linear_378_1920" x1="86.7491" y1="35.8432" x2="93.1802" y2="127.812" gradientUnits="userSpaceOnUse">
<stop offset="0.485" stop-opacity="0.61"/>
<stop offset="1" stop-color="#7C3AED"/>
</linearGradient>
<clipPath id="clip0_378_1920">
<rect x="15" y="37.8477" width="112.5" height="112.5" rx="4" transform="rotate(-4 15 37.8477)" fill="white"/>
</clipPath>
</defs>
</svg>
