<svg width="24" height="21" viewBox="0 0 24 21" fill="none" xmlns="http://www.w3.org/2000/svg">
<path d="M2 15.75C2 14.4021 2 13.7282 2.34673 13.2331C2.54074 12.9561 2.80693 12.7231 3.12353 12.5534C3.68934 12.25 4.45956 12.25 6 12.25C7.54044 12.25 8.31066 12.25 8.87647 12.5534C9.19307 12.7231 9.45926 12.9561 9.65327 13.2331C10 13.7282 10 14.4021 10 15.75C10 17.0979 10 17.7718 9.65327 18.2669C9.45926 18.5439 9.19307 18.7769 8.87647 18.9466C8.31066 19.25 7.54044 19.25 6 19.25C4.45956 19.25 3.68934 19.25 3.12353 18.9466C2.80693 18.7769 2.54074 18.5439 2.34673 18.2669C2 17.7718 2 17.0979 2 15.75Z" stroke="white" stroke-width="1.8"/>
<path d="M14 15.75C14 14.4021 14 13.7282 14.3467 13.2331C14.5407 12.9561 14.8069 12.7231 15.1235 12.5534C15.6893 12.25 16.4596 12.25 18 12.25C19.5404 12.25 20.3107 12.25 20.8765 12.5534C21.1931 12.7231 21.4593 12.9561 21.6533 13.2331C22 13.7282 22 14.4021 22 15.75C22 17.0979 22 17.7718 21.6533 18.2669C21.4593 18.5439 21.1931 18.7769 20.8765 18.9466C20.3107 19.25 19.5404 19.25 18 19.25C16.4596 19.25 15.6893 19.25 15.1235 18.9466C14.8069 18.7769 14.5407 18.5439 14.3467 18.2669C14 17.7718 14 17.0979 14 15.75Z" stroke="white" stroke-width="1.8"/>
<path d="M2 5.25C2 3.90212 2 3.22818 2.34673 2.73309C2.54074 2.45607 2.80693 2.22315 3.12353 2.05339C3.68934 1.75 4.45956 1.75 6 1.75C7.54044 1.75 8.31066 1.75 8.87647 2.05339C9.19307 2.22315 9.45926 2.45607 9.65327 2.73309C10 3.22818 10 3.90212 10 5.25C10 6.59788 10 7.27182 9.65327 7.76691C9.45926 8.04393 9.19307 8.27685 8.87647 8.44661C8.31066 8.75 7.54044 8.75 6 8.75C4.45956 8.75 3.68934 8.75 3.12353 8.44661C2.80693 8.27685 2.54074 8.04393 2.34673 7.76691C2 7.27182 2 6.59788 2 5.25Z" stroke="white" stroke-width="1.8"/>
<path d="M14 5.25C14 3.90212 14 3.22818 14.3467 2.73309C14.5407 2.45607 14.8069 2.22315 15.1235 2.05339C15.6893 1.75 16.4596 1.75 18 1.75C19.5404 1.75 20.3107 1.75 20.8765 2.05339C21.1931 2.22315 21.4593 2.45607 21.6533 2.73309C22 3.22818 22 3.90212 22 5.25C22 6.59788 22 7.27182 21.6533 7.76691C21.4593 8.04393 21.1931 8.27685 20.8765 8.44661C20.3107 8.75 19.5404 8.75 18 8.75C16.4596 8.75 15.6893 8.75 15.1235 8.44661C14.8069 8.27685 14.5407 8.04393 14.3467 7.76691C14 7.27182 14 6.59788 14 5.25Z" stroke="white" stroke-width="1.8"/>
</svg>
