<svg width="25" height="25" viewBox="0 0 25 25" fill="none" xmlns="http://www.w3.org/2000/svg">
<path d="M2.08331 18.7502C2.08331 17.1455 2.08331 16.3432 2.44449 15.7538C2.64659 15.424 2.92387 15.1468 3.25366 14.9447C3.84305 14.5835 4.64536 14.5835 6.24998 14.5835C7.8546 14.5835 8.65691 14.5835 9.2463 14.9447C9.57609 15.1468 9.85337 15.424 10.0555 15.7538C10.4166 16.3432 10.4166 17.1455 10.4166 18.7502C10.4166 20.3548 10.4166 21.1571 10.0555 21.7465C9.85337 22.0763 9.57609 22.3536 9.2463 22.5557C8.65691 22.9168 7.8546 22.9168 6.24998 22.9168C4.64536 22.9168 3.84305 22.9168 3.25366 22.5557C2.92387 22.3536 2.64659 22.0763 2.44449 21.7465C2.08331 21.1571 2.08331 20.3548 2.08331 18.7502Z" stroke="white" stroke-width="1.8"/>
<path d="M14.5833 18.7502C14.5833 17.1455 14.5833 16.3432 14.9445 15.7538C15.1466 15.424 15.4239 15.1468 15.7537 14.9447C16.343 14.5835 17.1454 14.5835 18.75 14.5835C20.3546 14.5835 21.1569 14.5835 21.7463 14.9447C22.0761 15.1468 22.3534 15.424 22.5555 15.7538C22.9166 16.3432 22.9166 17.1455 22.9166 18.7502C22.9166 20.3548 22.9166 21.1571 22.5555 21.7465C22.3534 22.0763 22.0761 22.3536 21.7463 22.5557C21.1569 22.9168 20.3546 22.9168 18.75 22.9168C17.1454 22.9168 16.343 22.9168 15.7537 22.5557C15.4239 22.3536 15.1466 22.0763 14.9445 21.7465C14.5833 21.1571 14.5833 20.3548 14.5833 18.7502Z" stroke="white" stroke-width="1.8"/>
<path d="M2.08331 6.25016C2.08331 4.64554 2.08331 3.84323 2.44449 3.25384C2.64659 2.92405 2.92387 2.64677 3.25366 2.44467C3.84305 2.0835 4.64536 2.0835 6.24998 2.0835C7.8546 2.0835 8.65691 2.0835 9.2463 2.44467C9.57609 2.64677 9.85337 2.92405 10.0555 3.25384C10.4166 3.84323 10.4166 4.64554 10.4166 6.25016C10.4166 7.85479 10.4166 8.6571 10.0555 9.24648C9.85337 9.57628 9.57609 9.85356 9.2463 10.0557C8.65691 10.4168 7.8546 10.4168 6.24998 10.4168C4.64536 10.4168 3.84305 10.4168 3.25366 10.0557C2.92387 9.85356 2.64659 9.57628 2.44449 9.24648C2.08331 8.6571 2.08331 7.85479 2.08331 6.25016Z" stroke="white" stroke-width="1.8"/>
<path d="M14.5833 6.25016C14.5833 4.64554 14.5833 3.84323 14.9445 3.25384C15.1466 2.92405 15.4239 2.64677 15.7537 2.44467C16.343 2.0835 17.1454 2.0835 18.75 2.0835C20.3546 2.0835 21.1569 2.0835 21.7463 2.44467C22.0761 2.64677 22.3534 2.92405 22.5555 3.25384C22.9166 3.84323 22.9166 4.64554 22.9166 6.25016C22.9166 7.85479 22.9166 8.6571 22.5555 9.24648C22.3534 9.57628 22.0761 9.85356 21.7463 10.0557C21.1569 10.4168 20.3546 10.4168 18.75 10.4168C17.1454 10.4168 16.343 10.4168 15.7537 10.0557C15.4239 9.85356 15.1466 9.57628 14.9445 9.24648C14.5833 8.6571 14.5833 7.85479 14.5833 6.25016Z" stroke="white" stroke-width="1.8"/>
</svg>
