<svg width="28" height="23" viewBox="0 0 28 23" fill="none" xmlns="http://www.w3.org/2000/svg">
<path d="M18.6666 16.2915L10.5 16.2915" stroke="white" stroke-width="1.8" stroke-linecap="round" stroke-linejoin="round"/>
<path d="M18.6666 12.458L15.1666 12.458" stroke="white" stroke-width="1.8" stroke-linecap="round" stroke-linejoin="round"/>
<path d="M23.9166 13.4163C23.9166 17.0304 23.9166 18.8375 22.4644 19.9603C21.0121 21.083 18.6747 21.083 14 21.083H13.0984C9.29371 21.083 7.39133 21.083 6.07021 20.3184C5.69168 20.0993 5.35564 19.8395 5.07228 19.5469C4.08329 18.5255 4.08329 17.0548 4.08329 14.1133V11.6739C4.08329 8.83421 4.08329 7.41436 4.63039 6.28035C5.50991 4.45729 7.36995 3.01927 9.72805 2.3393C11.1949 1.91634 13.0314 1.91634 16.7045 1.91634C18.8034 1.91634 19.8529 1.91634 20.6911 2.15803C22.0385 2.54659 23.1014 3.36831 23.604 4.41006C23.9166 5.05806 23.9166 5.86941 23.9166 7.4921V13.4163Z" stroke="white" stroke-width="1.8" stroke-linejoin="round"/>
<path d="M4.08333 11.5C4.08333 9.73576 5.82445 8.30556 7.97222 8.30556C8.74897 8.30556 9.66471 8.41735 10.4199 8.25113C11.0909 8.10344 11.6151 7.67291 11.7949 7.12172C11.9972 6.50137 11.8611 5.74915 11.8611 5.11111C11.8611 3.34687 13.6022 1.91667 15.75 1.91667" stroke="white" stroke-width="1.8" stroke-linecap="round" stroke-linejoin="round"/>
</svg>
