<svg width="24" height="27" viewBox="0 0 24 27" fill="none" xmlns="http://www.w3.org/2000/svg">
<path d="M18.6161 22.3074H19.1063C20.2561 22.3074 21.1707 21.7231 21.9919 20.906C24.078 18.8303 19.1741 16.7305 17.5 16.7305M15.5 5.65336C15.7271 5.60313 15.9629 5.57666 16.2048 5.57666C18.0247 5.57666 19.5 7.07478 19.5 8.92281C19.5 10.7708 18.0247 12.269 16.2048 12.269C15.9629 12.269 15.7271 12.2425 15.5 12.1923" stroke="white" stroke-width="1.8" stroke-linecap="round"/>
<path d="M4.48131 17.9701C3.30234 18.6748 0.211137 20.1138 2.09388 21.9144C3.01359 22.794 4.03791 23.423 5.32572 23.423H12.6743C13.9621 23.423 14.9864 22.794 15.9061 21.9144C17.7889 20.1138 14.6977 18.6748 13.5187 17.9701C10.754 16.3176 7.24599 16.3176 4.48131 17.9701Z" stroke="white" stroke-width="1.8"/>
<path d="M13 8.36535C13 10.8294 11.2091 12.8269 9 12.8269C6.79086 12.8269 5 10.8294 5 8.36535C5 5.90131 6.79086 3.90381 9 3.90381C11.2091 3.90381 13 5.90131 13 8.36535Z" stroke="white" stroke-width="1.8"/>
</svg>
