<svg width="25" height="25" viewBox="0 0 25 25" fill="none" xmlns="http://www.w3.org/2000/svg">
<path d="M16.6666 17.7085L9.37496 17.7085" stroke="white" stroke-width="1.8" stroke-linecap="round" stroke-linejoin="round"/>
<path d="M16.6666 13.542L13.5416 13.542" stroke="white" stroke-width="1.8" stroke-linecap="round" stroke-linejoin="round"/>
<path d="M21.3541 14.5837C21.3541 18.512 21.3541 20.4762 20.0575 21.6966C18.7608 22.917 16.6739 22.917 12.5 22.917H11.695C8.29795 22.917 6.5994 22.917 5.41982 22.0859C5.08186 21.8478 4.78181 21.5654 4.52881 21.2473C3.64579 20.1371 3.64579 18.5385 3.64579 15.3412V12.6897C3.64579 9.60308 3.64579 8.05977 4.13427 6.82715C4.91956 4.84556 6.58031 3.2825 8.68575 2.5434C9.99541 2.08366 11.6352 2.08366 14.9147 2.08366C16.7888 2.08366 17.7258 2.08366 18.4742 2.34637C19.6773 2.76871 20.6263 3.66189 21.075 4.79422C21.3541 5.49858 21.3541 6.38047 21.3541 8.14427V14.5837Z" stroke="white" stroke-width="1.8" stroke-linejoin="round"/>
<path d="M3.64583 12.5C3.64583 10.5823 5.2004 9.02778 7.11805 9.02778C7.81158 9.02778 8.6292 9.1493 9.3035 8.96862C9.90262 8.80809 10.3706 8.34012 10.5311 7.741C10.7118 7.0667 10.5903 6.24908 10.5903 5.55555C10.5903 3.6379 12.1448 2.08333 14.0625 2.08333" stroke="white" stroke-width="1.8" stroke-linecap="round" stroke-linejoin="round"/>
</svg>
