<svg width="27" height="23" viewBox="0 0 27 23" fill="none" xmlns="http://www.w3.org/2000/svg">
<path d="M16.5872 16.5156C16.5059 18.251 14.7992 19.7245 12.513 19.6771C11.9811 19.6661 11.3237 19.5089 10.0089 19.1946C6.84457 18.4383 4.09765 17.1672 3.43859 14.3196C3.31744 13.7962 3.31744 13.2072 3.31744 12.0292L3.31744 10.4601C3.31744 9.28204 3.31744 8.69303 3.43859 8.1696C4.09765 5.32204 6.84457 4.05092 10.0089 3.29458C11.3237 2.98031 11.9811 2.82317 12.513 2.81215C14.7992 2.76475 16.5059 4.23825 16.5872 5.97363" stroke="white" stroke-width="1.8" stroke-linecap="round"/>
<path d="M23.2222 11.2445H11.0582M23.2222 11.2445C23.2222 10.5884 21.0168 9.36245 20.4576 8.90186M23.2222 11.2445C23.2222 11.9007 21.0168 13.1266 20.4576 13.5872" stroke="white" stroke-width="1.8" stroke-linecap="round" stroke-linejoin="round"/>
</svg>
